<svg width="28" height="28" fill="none" xmlns="http://www.w3.org/2000/svg"><path d="M26.5 20.15v3.75a2.5 2.5 0 01-2.725 2.5 24.737 24.737 0 01-10.787-3.837 24.375 24.375 0 01-7.5-7.5A24.737 24.737 0 011.65 4.225 2.5 2.5 0 014.138 1.5h3.75a2.5 2.5 0 012.5 2.15c.158 1.2.451 2.379.874 3.513A2.5 2.5 0 0110.7 9.8l-1.587 1.588a20 20 0 007.5 7.5L18.2 17.3a2.5 2.5 0 012.637-.562 16.12 16.12 0 003.513.875 2.5 2.5 0 012.15 2.537z" stroke="#fff" stroke-width="2" stroke-linecap="round" stroke-linejoin="round"/></svg>