<svg width="30" height="30" fill="none" xmlns="http://www.w3.org/2000/svg"><path d="M27.5 21.15v3.75a2.5 2.5 0 01-2.725 2.5 24.736 24.736 0 01-10.788-3.837 24.375 24.375 0 01-7.5-7.5A24.738 24.738 0 012.65 5.225 2.5 2.5 0 015.137 2.5h3.75a2.5 2.5 0 012.5 2.15c.159 1.2.452 2.379.875 3.513A2.5 2.5 0 0111.7 10.8l-1.588 1.588a20 20 0 007.5 7.5L19.2 18.3a2.5 2.5 0 012.637-.562 16.05 16.05 0 003.513.875 2.5 2.5 0 012.15 2.537z" fill="#fff" stroke="#fff" stroke-width="2" stroke-linecap="round" stroke-linejoin="round"/></svg>